<svg width="659" height="457" viewBox="0 0 659 457" fill="none" xmlns="http://www.w3.org/2000/svg">
<rect width="749" height="457" rx="30" fill="#0F6EFF"/>
<mask id="mask0_3:603" style="mask-type:alpha" maskUnits="userSpaceOnUse" x="0" y="41" width="685" height="416">
<path d="M685 457L28.0001 457C12.5361 457 5.99392e-05 444.464 5.85873e-05 429L2.46673e-05 41L685 40.9999L685 457Z" fill="#0F6EFF"/>
</mask>
<g mask="url(#mask0_3:603)">
<path opacity="0.15" d="M69.4277 158.293C239.434 280.424 473.722 137.707 659.4 234.359C756.009 284.647 775.6 330.026 844.926 405.043C889.392 453.159 893.63 461.535 935.834 495.95C978.037 530.365 1054.57 570.161 1054.57 570.161L1054.57 696.318L-943.544 696.319L-943.544 -144.114L-466.742 -144.114C-466.742 -144.114 -212.078 -148.081 -90.1247 -43.9301C-15.951 19.4159 -17.5995 95.7738 69.4277 158.293Z" fill="white" fill-opacity="0.8"/>
<path opacity="0.15" d="M0.784804 198.697C170.791 320.828 405.08 146.572 590.757 243.224C687.366 293.512 737.941 471.73 766.079 524.399C781.497 553.258 805.04 579.232 843.278 599.434C881.517 619.635 985.928 610.565 985.928 610.565L985.928 736.723L-1012.19 736.723L-1012.19 -50.9379L-565.069 -50.9379C-565.069 -50.9379 -251.53 -61.0388 -149.491 11.3163C-60.4387 74.4626 -86.2425 136.178 0.784804 198.697Z" fill="white" fill-opacity="0.8"/>
</g>
</svg>
