<svg width="18" height="18" viewBox="0 0 18 18" fill="none" xmlns="http://www.w3.org/2000/svg">
<path d="M17.1305 1.61644C17.0878 1.9634 17.0513 2.31033 16.9966 2.65729C16.748 4.23131 16.2159 5.74707 15.4262 7.13111C14.7107 8.43088 13.7875 9.60504 12.6931 10.6069C12.6526 10.647 12.6217 10.6956 12.6027 10.7494C12.5837 10.8032 12.5771 10.8607 12.5835 10.9173C12.4902 13.2005 11.5558 15.3686 9.96008 17.0043C9.87868 17.1039 9.76415 17.1707 9.63745 17.1929C9.53608 17.1979 9.43676 17.1633 9.36059 17.0963C9.28442 17.0292 9.2374 16.935 9.2296 16.8338C9.10177 15.9208 8.97394 15.0077 8.84002 14.0947C8.72281 14.1512 8.61905 14.2321 8.53567 14.332C8.26785 14.5633 8.1035 14.5633 7.85394 14.332L3.29481 9.7729C3.03916 9.51725 3.03307 9.35298 3.29481 9.09124L3.56877 8.78689L2.26615 8.59816L0.762693 8.38506C0.689954 8.38109 0.620139 8.35518 0.562519 8.3106C0.5049 8.26603 0.462183 8.20495 0.440067 8.13555C0.415624 8.06238 0.41414 7.98352 0.435906 7.90951C0.457672 7.83551 0.501614 7.76995 0.561776 7.72167C1.61707 6.67895 2.9071 5.90441 4.32355 5.46329C5.11142 5.20974 5.93105 5.06839 6.75833 5.04332C6.8025 5.05251 6.84806 5.05251 6.89223 5.04332C6.93767 5.02571 6.97756 4.99636 7.00784 4.95817C8.91215 2.89879 11.3912 1.45887 14.1235 0.825106C14.945 0.62854 15.7867 0.52845 16.6314 0.526851C16.7328 0.514367 16.8356 0.534014 16.9252 0.583173C17.0147 0.632332 17.0865 0.708482 17.1305 0.800734V1.61644ZM13.9166 5.53031C13.91 5.04265 13.716 4.5763 13.3748 4.22777C13.0275 3.88561 12.5598 3.69321 12.0722 3.69204C11.8311 3.69225 11.5923 3.74023 11.3698 3.83321C11.1472 3.9262 10.9453 4.06227 10.7757 4.23371C10.605 4.40262 10.4693 4.60359 10.3763 4.82502C10.2834 5.04645 10.235 5.28407 10.234 5.52422C10.2334 5.76642 10.2809 6.00632 10.3739 6.22995C10.467 6.45359 10.6035 6.65641 10.7757 6.82676C10.9453 6.9982 11.1472 7.13442 11.3698 7.22741C11.5923 7.32039 11.8311 7.36838 12.0722 7.36858C12.3144 7.36918 12.5543 7.3216 12.778 7.22859C13.0016 7.13559 13.2045 6.99893 13.3748 6.82676C13.5463 6.65713 13.6824 6.45531 13.7754 6.23278C13.8684 6.01025 13.9164 5.77149 13.9166 5.53031Z" fill="white"/>
</svg>
