<svg width="7" height="7" viewBox="0 0 7 7" fill="none" xmlns="http://www.w3.org/2000/svg">
<path d="M0.752194 6.13077C0.478281 5.9786 0.423489 5.85691 0.514794 5.57082C0.904695 4.23314 1.3951 2.92686 1.98177 1.66304C2.10519 1.37514 2.28435 1.11442 2.50896 0.896082C2.73356 0.677741 2.99912 0.506038 3.29041 0.390817C3.77209 0.213494 4.29936 0.202748 4.78785 0.360353C5.28412 0.51379 5.71343 0.83147 6.00524 1.26121C6.28738 1.69115 6.41605 2.20385 6.37044 2.71608C6.32985 3.2287 6.11505 3.712 5.76175 4.08564C5.43099 4.39016 5.04448 4.62779 4.62349 4.78558C3.49716 5.28442 2.34031 5.71142 1.15997 6.0639C1.0991 6.0639 1.0322 6.06382 0.989594 6.13077H0.752194Z" fill="white"/>
</svg>
