<svg width="78" height="19" viewBox="0 0 78 19" fill="none" xmlns="http://www.w3.org/2000/svg">
<path d="M11.7412 8.51604C13.1201 7.6476 14.2808 6.95465 15.4053 6.20738C16.8401 5.24952 18.1882 4.15216 19.6732 3.28705C23.5096 1.05219 26.9926 2.08863 29.0421 5.97488C29.2644 6.39216 29.4864 6.81702 29.852 7.50474C30.6963 6.73347 31.3806 5.97996 32.1812 5.38967C33.8839 4.12111 35.5312 2.68367 37.42 1.77806C40.2873 0.41693 43.228 1.31473 45.4195 3.82258C46.2258 4.74449 46.946 5.7473 47.851 6.90786C49.2376 5.55337 50.4261 4.21547 51.7903 3.08823C55.7198 -0.177045 59.4346 0.00804265 62.9163 3.74175C64.782 5.74549 67.0414 6.5763 69.6327 6.99205C72.1032 7.3888 74.5444 7.98981 76.9963 8.49236C77.0349 8.71391 77.0809 8.9433 77.1195 9.16486C76.3779 9.81019 75.7367 10.641 74.8878 11.0778C69.5615 13.8509 64.0443 15.4479 58.0172 13.4578C57.4761 13.2812 56.7533 13.57 56.148 13.7409C55.8415 13.8301 55.5964 14.1415 55.3166 14.3454C49.508 18.6914 45.7314 18.5423 40.2022 13.7565C39.9951 13.5828 39.7642 13.4388 39.4597 13.2241C38.0246 14.1896 36.6342 15.1868 35.1783 16.0908C30.8727 18.7592 27.1977 18.5146 23.4449 15.1902C22.4919 14.3473 21.8711 14.2898 20.7953 14.9398C18.8529 16.1021 16.8641 17.2932 14.7374 18.0394C7.04484 20.723 -0.885482 13.8178 0.499508 5.74659C0.955161 3.08638 2.98255 1.15176 5.4934 0.987522C8.00426 0.823284 10.1395 2.46323 10.912 5.18483C11.2072 6.18186 11.4189 7.17624 11.7412 8.51604Z" fill="#FFBD00"/>
</svg>
